<?xml version="1.0" encoding="utf-8"?>
<!-- Generator: Adobe Illustrator 23.0.0, SVG Export Plug-In . SVG Version: 6.00 Build 0)  -->
<svg version="1.1" id="レイヤー_1" xmlns="http://www.w3.org/2000/svg" xmlns:xlink="http://www.w3.org/1999/xlink" x="0px"
	 y="0px" viewBox="0 0 448.6 410" style="enable-background:new 0 0 448.6 410;" xml:space="preserve">
<style type="text/css">
	.st0{fill:none;stroke:#FFFFFF;stroke-miterlimit:10;}
</style>
<g>
	<circle class="st0" cx="69.1" cy="300" r="8.6"/>
	<circle class="st0" cx="177" cy="260.1" r="17.5"/>
	<circle class="st0" cx="52.7" cy="181.3" r="10.3"/>
	<circle class="st0" cx="44.6" cy="127.3" r="6"/>
	<circle class="st0" cx="66.7" cy="49.7" r="6"/>
	<circle class="st0" cx="114.5" cy="45.1" r="6"/>
	<circle class="st0" cx="175.3" cy="50.9" r="6"/>
	<circle class="st0" cx="239.2" cy="76.3" r="3.9"/>
	<circle class="st0" cx="3.3" cy="244.2" r="2.8"/>
	<circle class="st0" cx="74.4" cy="234.4" r="2.2"/>
	<circle class="st0" cx="46" cy="276" r="5.1"/>
	<circle class="st0" cx="245.5" cy="227.2" r="1.7"/>
	<circle class="st0" cx="107.3" cy="255.1" r="3.5"/>
	<circle class="st0" cx="142.3" cy="229" r="3.5"/>
	<circle class="st0" cx="197.6" cy="183.3" r="6.1"/>
	<circle class="st0" cx="207.9" cy="201.5" r="3.5"/>
	<circle class="st0" cx="260.1" cy="160.8" r="3.5"/>
	<circle class="st0" cx="301.7" cy="194" r="3.5"/>
	<circle class="st0" cx="301.6" cy="222.8" r="5.5"/>
	
		<ellipse transform="matrix(0.1602 -0.9871 0.9871 0.1602 36.1374 403.6745)" class="st0" cx="255.3" cy="180.6" rx="5.5" ry="5.5"/>
	<circle class="st0" cx="350.9" cy="276.6" r="5.7"/>
	<circle class="st0" cx="400.6" cy="228.8" r="5.7"/>
	<circle class="st0" cx="398" cy="243.4" r="2.9"/>
	<circle class="st0" cx="376.3" cy="261.5" r="2.2"/>
	<circle class="st0" cx="414.7" cy="232.1" r="2.2"/>
	<circle class="st0" cx="443.7" cy="230.4" r="2.2"/>
	<circle class="st0" cx="415.6" cy="282.7" r="2.2"/>
	<circle class="st0" cx="232.7" cy="271.4" r="2.2"/>
	<circle class="st0" cx="309" cy="265.2" r="2.2"/>
	<circle class="st0" cx="436.4" cy="265.4" r="5.7"/>
	<circle class="st0" cx="441.5" cy="286.1" r="5.7"/>
	<circle class="st0" cx="340.6" cy="406.1" r="3.3"/>
	<circle class="st0" cx="406.8" cy="340.5" r="11.9"/>
	<circle class="st0" cx="275.6" cy="251.1" r="3.9"/>
	<polygon class="st0" points="330.4,197.9 330.4,197.9 330.4,197.9 330.4,197.9 	"/>
	<circle class="st0" cx="335.8" cy="152.1" r="5.3"/>
	<circle class="st0" cx="366.1" cy="166" r="3.5"/>
	<circle class="st0" cx="387.4" cy="137.8" r="3.5"/>
	<circle class="st0" cx="324.7" cy="85.9" r="1.5"/>
	<circle class="st0" cx="382.2" cy="57.7" r="1.5"/>
	<circle class="st0" cx="397.7" cy="104.1" r="1.5"/>
	<circle class="st0" cx="399.6" cy="192.2" r="5.8"/>
	<circle class="st0" cx="438.1" cy="184.1" r="10"/>
	<circle class="st0" cx="355.9" cy="208.7" r="15.6"/>
	<circle class="st0" cx="233.2" cy="125.5" r="5.7"/>
	<circle class="st0" cx="193.3" cy="122.8" r="5.7"/>
	<circle class="st0" cx="211.9" cy="164.8" r="5.5"/>
	<circle class="st0" cx="251.9" cy="4" r="3.5"/>
	<circle class="st0" cx="290.4" cy="318.2" r="8.9"/>
	<circle class="st0" cx="103.4" cy="156.3" r="1.7"/>
	<circle class="st0" cx="100.5" cy="200.6" r="1.3"/>
	<circle class="st0" cx="79.3" cy="155.1" r="1.7"/>
	<circle class="st0" cx="68.5" cy="133.2" r="1.7"/>
	<circle class="st0" cx="73.8" cy="79.2" r="2.1"/>
	<circle class="st0" cx="119.2" cy="113.8" r="1.7"/>
	<circle class="st0" cx="222.3" cy="250" r="3.5"/>
	<circle class="st0" cx="69.1" cy="300" r="6.9"/>
	<circle class="st0" cx="177" cy="260.1" r="14"/>
	<circle class="st0" cx="52.7" cy="181.3" r="8.3"/>
	<circle class="st0" cx="406.8" cy="340.5" r="9.5"/>
	<circle class="st0" cx="355.9" cy="208.7" r="12.5"/>
	<circle class="st0" cx="105.2" cy="135.5" r="5.4"/>
	<circle class="st0" cx="133" cy="165.7" r="1.7"/>
	<circle class="st0" cx="146.1" cy="142.7" r="1.7"/>
	<line class="st0" x1="50" y1="130.1" x2="66.8" y2="132.1"/>
	<line class="st0" x1="209.9" y1="169.9" x2="201.4" y2="178.5"/>
	<line class="st0" x1="307.3" y1="264.1" x2="279.3" y2="251.9"/>
	<line class="st0" x1="398.8" y1="186.2" x2="388.5" y2="141.1"/>
	<line class="st0" x1="388.1" y1="134.4" x2="397.4" y2="105.5"/>
	<line class="st0" x1="396.3" y1="103.8" x2="383.7" y2="58"/>
	<line class="st0" x1="190.4" y1="249" x2="251.3" y2="184.3"/>
	<line class="st0" x1="205.1" y1="202.9" x2="145.6" y2="228"/>
	<line class="st0" x1="110.3" y1="253.3" x2="139.1" y2="231.1"/>
	<line class="st0" x1="70.8" y1="291.6" x2="73.4" y2="236.3"/>
	<line class="st0" x1="56.1" y1="191.1" x2="73" y2="232.8"/>
	<line class="st0" x1="54.8" y1="171.2" x2="73.5" y2="81.3"/>
	<path class="st0" d="M74.8,79.9"/>
	<line class="st0" x1="110.7" y1="255.4" x2="159.6" y2="258.7"/>
	<line class="st0" x1="6.1" y1="244.8" x2="103.8" y2="255"/>
	<line class="st0" x1="281.9" y1="315.3" x2="193" y2="267.5"/>
	<line class="st0" x1="298.9" y1="321.3" x2="395.2" y2="337.7"/>
	<polyline class="st0" points="397.8,348.3 340.5,402.8 292.4,326.9 	"/>
	<line class="st0" x1="350.4" y1="282.6" x2="340.5" y2="402.8"/>
	<line class="st0" x1="304.8" y1="227.2" x2="346.9" y2="272.5"/>
	<line class="st0" x1="176.7" y1="56.7" x2="192.5" y2="117.2"/>
	<line class="st0" x1="119.8" y1="48" x2="330.8" y2="150"/>
	<line class="st0" x1="187.9" y1="121.1" x2="75.6" y2="80.2"/>
	<line class="st0" x1="101.7" y1="201.1" x2="139.3" y2="228.5"/>
	<line class="st0" x1="431.1" y1="267.7" x2="356.4" y2="275.1"/>
	<line class="st0" x1="396.2" y1="232.5" x2="354.3" y2="272.5"/>
	<line class="st0" x1="347.8" y1="222" x2="294.4" y2="310.2"/>
	<line class="st0" x1="341.9" y1="201.4" x2="262.9" y2="162.8"/>
	<line class="st0" x1="196.6" y1="127.5" x2="251" y2="177.1"/>
	<line class="st0" x1="110.4" y1="49.5" x2="75.2" y2="77.6"/>
	<line class="st0" x1="119.4" y1="115.7" x2="171.6" y2="243.5"/>
	<line class="st0" x1="200.1" y1="188.9" x2="206.4" y2="198.1"/>
	<line class="st0" x1="296.2" y1="221.7" x2="211.1" y2="203"/>
	<line class="st0" x1="77.2" y1="297" x2="160.9" y2="266.9"/>
	<line class="st0" x1="225.2" y1="252.1" x2="283.1" y2="313.1"/>
	<line class="st0" x1="301.3" y1="228.3" x2="289.5" y2="309.3"/>
	<path class="st0" d="M194.1,264.1c2.2,0.5,36,6.8,36,6.8"/>
	<path class="st0" d="M354.9,224.2c-0.4,0.7-2.9,46.8-2.9,46.8"/>
	<line class="st0" x1="361.6" y1="223.2" x2="375.9" y2="259.1"/>
	<line class="st0" x1="356.4" y1="277" x2="413.6" y2="281.9"/>
	<line class="st0" x1="306.1" y1="225.8" x2="374.2" y2="260.3"/>
	<line class="st0" x1="431.3" y1="262.9" x2="307" y2="223.6"/>
	<line class="st0" x1="333.2" y1="156.8" x2="304" y2="217.7"/>
	<path class="st0" d="M364.1,168.9c-0.8,0.3-58.1,50.3-58.1,50.3"/>
	<path class="st0" d="M222.3,250"/>
	<line class="st0" x1="100" y1="201.8" x2="75.3" y2="232.4"/>
	<line class="st0" x1="172.1" y1="56" x2="101.1" y2="199.4"/>
	<line class="st0" x1="237.1" y1="129.6" x2="256.4" y2="175.2"/>
	<path class="st0" d="M259.2,184.4c0.6,0.7,39.3,33.9,39.3,33.9"/>
	<line class="st0" x1="306.8" y1="221.4" x2="340.7" y2="205.5"/>
	<line class="st0" x1="339.1" y1="156" x2="397.2" y2="224.2"/>
	<path class="st0" d="M340.8,154.4c1,0.5,22.2,10.1,22.2,10.1"/>
	<path class="st0" d="M366.2,203.4"/>
	<line class="st0" x1="252.4" y1="7.4" x2="299.8" y2="217.9"/>
	<line class="st0" x1="166.6" y1="246" x2="144" y2="232.1"/>
	<line class="st0" x1="192.9" y1="179.4" x2="147.1" y2="144.1"/>
	<line class="st0" x1="144.4" y1="142.4" x2="110" y2="137.9"/>
	<line class="st0" x1="99.3" y1="200.3" x2="61.9" y2="186.1"/>
	<line class="st0" x1="70.2" y1="133.5" x2="78.3" y2="153.7"/>
	<line class="st0" x1="81" y1="155.4" x2="101.8" y2="155.6"/>
	<line class="st0" x1="105" y1="157.1" x2="131.3" y2="165.3"/>
	<line class="st0" x1="232.2" y1="119.9" x2="240.8" y2="79.9"/>
	<line class="st0" x1="296.5" y1="224.7" x2="225.7" y2="249.4"/>
	<line class="st0" x1="271.8" y1="250.3" x2="225.7" y2="250.7"/>
	<line class="st0" x1="247.4" y1="226.7" x2="298.5" y2="195.3"/>
	<line class="st0" x1="50" y1="272.9" x2="73" y2="236"/>
	<line class="st0" x1="257.3" y1="158.8" x2="197.8" y2="126.2"/>
	<line class="st0" x1="369.3" y1="167.6" x2="428.2" y2="184.8"/>
	<line class="st0" x1="440.9" y1="193.7" x2="443.1" y2="228.2"/>
	<line class="st0" x1="400.5" y1="241.9" x2="412.8" y2="233.1"/>
	<line class="st0" x1="378" y1="262.9" x2="413.6" y2="281.9"/>
	<line class="st0" x1="417.7" y1="283.1" x2="435.8" y2="285.7"/>
	<line class="st0" x1="354.6" y1="280.9" x2="398.9" y2="331.6"/>
	<line class="st0" x1="211.1" y1="200.3" x2="250.5" y2="183.2"/>
	<line class="st0" x1="72.5" y1="48" x2="108.1" y2="46"/>
	<line class="st0" x1="323.2" y1="85.6" x2="242.5" y2="78.3"/>
	<line class="st0" x1="325.5" y1="84.7" x2="381.2" y2="58.8"/>
</g>
</svg>
