<?xml version="1.0" encoding="utf-8"?>
<!-- Generator: Adobe Illustrator 23.0.0, SVG Export Plug-In . SVG Version: 6.00 Build 0)  -->
<svg version="1.1" id="レイヤー_1" xmlns="http://www.w3.org/2000/svg" xmlns:xlink="http://www.w3.org/1999/xlink" x="0px"
	 y="0px" viewBox="0 0 325.2 336.5" style="enable-background:new 0 0 325.2 336.5;" xml:space="preserve">
<style type="text/css">
	.st0{fill:none;stroke:#FFFFFF;stroke-miterlimit:10;}
</style>
<g>
	<circle class="st0" cx="24.7" cy="266.6" r="14"/>
	<circle class="st0" cx="161" cy="296.8" r="8.6"/>
	<circle class="st0" cx="258.7" cy="235.9" r="17.5"/>
	<circle class="st0" cx="102.2" cy="127.5" r="6"/>
	<circle class="st0" cx="133.7" cy="109.5" r="6"/>
	<circle class="st0" cx="108.2" cy="52.1" r="6"/>
	<circle class="st0" cx="38.2" cy="38.4" r="10.8"/>
	<circle class="st0" cx="147.6" cy="36.2" r="6"/>
	<circle class="st0" cx="214.7" cy="31.4" r="6"/>
	<circle class="st0" cx="167.4" cy="86.4" r="3.9"/>
	<circle class="st0" cx="265.7" cy="43.4" r="3.9"/>
	<circle class="st0" cx="90" cy="5.5" r="5"/>
	<circle class="st0" cx="4" cy="177" r="3.5"/>
	<circle class="st0" cx="37" cy="172.3" r="3.5"/>
	<circle class="st0" cx="10.7" cy="211.4" r="3.5"/>
	<circle class="st0" cx="4" cy="247.6" r="3.5"/>
	<circle class="st0" cx="52.1" cy="186.9" r="3.5"/>
	<circle class="st0" cx="110" cy="246.9" r="1.7"/>
	<circle class="st0" cx="85.3" cy="255.4" r="2.8"/>
	<circle class="st0" cx="135.8" cy="255.9" r="1.7"/>
	<circle class="st0" cx="162.9" cy="244.7" r="2.2"/>
	<circle class="st0" cx="140.4" cy="281.6" r="5.1"/>
	<circle class="st0" cx="42" cy="299.4" r="3.5"/>
	<circle class="st0" cx="90" cy="299.4" r="3.5"/>
	<circle class="st0" cx="315.1" cy="180.5" r="1.7"/>
	<circle class="st0" cx="143" cy="241.7" r="1.7"/>
	<circle class="st0" cx="189.3" cy="245.1" r="3.5"/>
	<circle class="st0" cx="230.1" cy="204.5" r="3.5"/>
	<circle class="st0" cx="161.6" cy="183" r="3.5"/>
	<circle class="st0" cx="263.3" cy="156.5" r="6.1"/>
	<circle class="st0" cx="277" cy="172.3" r="3.5"/>
	<circle class="st0" cx="318.6" cy="115" r="3.5"/>
	<circle class="st0" cx="319.2" cy="142.2" r="5.5"/>
	<circle class="st0" cx="288.1" cy="100.6" r="5.7"/>
	<circle class="st0" cx="246.9" cy="98.2" r="5.7"/>
	<circle class="st0" cx="303" cy="66.6" r="3.5"/>
	<circle class="st0" cx="227" cy="56.4" r="3.5"/>
	<circle class="st0" cx="278.4" cy="197.7" r="3.5"/>
	<circle class="st0" cx="29.1" cy="332.5" r="3.5"/>
	<circle class="st0" cx="166.6" cy="154" r="1.7"/>
	<circle class="st0" cx="71.6" cy="206.2" r="1.7"/>
	<circle class="st0" cx="75.6" cy="175.7" r="1.7"/>
	<circle class="st0" cx="50.9" cy="126.7" r="1.7"/>
	<circle class="st0" cx="80.3" cy="106.6" r="1.7"/>
	<path class="st0" d="M118.2,216.4c0.3-1.4-0.5-2.8-1.9-3.2c-1.4-0.3-2.8,0.5-3.2,1.9s0.5,2.8,1.9,3.2
		C116.5,218.7,117.9,217.8,118.2,216.4z"/>
	<circle class="st0" cx="137" cy="139.4" r="1.7"/>
	<circle class="st0" cx="126.7" cy="133.5" r="1.7"/>
	<circle class="st0" cx="121" cy="79.6" r="2.1"/>
	<circle class="st0" cx="182.5" cy="108.3" r="1.7"/>
	<circle class="st0" cx="301" cy="216.9" r="3.5"/>
	<circle class="st0" cx="238.7" cy="122.4" r="15.7"/>
	
		<ellipse transform="matrix(0.9999 -1.514632e-02 1.514632e-02 0.9999 -4.0352 0.4047)" class="st0" cx="24.7" cy="266.6" rx="11.2" ry="11.2"/>
	<circle class="st0" cx="161" cy="296.8" r="6.9"/>
	<circle class="st0" cx="258.7" cy="235.9" r="14"/>
	<circle class="st0" cx="38.2" cy="38.4" r="8.7"/>
	<circle class="st0" cx="238.7" cy="122.4" r="12.6"/>
	<circle class="st0" cx="238.7" cy="122.4" r="9.6"/>
	<circle class="st0" cx="118.3" cy="321.2" r="6.3"/>
	<circle class="st0" cx="54.4" cy="148.3" r="3.5"/>
	<circle class="st0" cx="26.2" cy="142.6" r="6.8"/>
	<circle class="st0" cx="162" cy="122.5" r="5.4"/>
	<circle class="st0" cx="204.8" cy="73.3" r="1.7"/>
	<circle class="st0" cx="228.1" cy="90.3" r="1.7"/>
	<circle class="st0" cx="210.8" cy="94.9" r="1.7"/>
	<circle class="st0" cx="167.4" cy="69" r="1.7"/>
	<line class="st0" x1="7.4" y1="177" x2="48.7" y2="186.9"/>
	<line class="st0" x1="50.9" y1="189.9" x2="27" y2="252.6"/>
	<line class="st0" x1="40.5" y1="173.5" x2="73.9" y2="175.3"/>
	<line class="st0" x1="76" y1="174" x2="99.4" y2="132.9"/>
	<line class="st0" x1="108" y1="129.1" x2="124.9" y2="132.8"/>
	<line class="st0" x1="87.5" y1="296.9" x2="37.5" y2="273.1"/>
	<line class="st0" x1="269.6" y1="222.3" x2="316.1" y2="146.7"/>
	<line class="st0" x1="274.6" y1="174.3" x2="233.1" y2="202.8"/>
	<line class="st0" x1="191.9" y1="242.7" x2="227.3" y2="207.1"/>
	<path class="st0" d="M137.4,285.8c-0.5,0.5-15.2,30.5-15.2,30.5"/>
	<polyline class="st0" points="39.8,302 32,330.8 86.8,300.7 	"/>
	<line class="st0" x1="161" y1="288.2" x2="162.2" y2="246.8"/>
	<line class="st0" x1="137" y1="141.2" x2="162.2" y2="242.7"/>
	<line class="st0" x1="79.2" y1="108" x2="56" y2="145.3"/>
	<path class="st0" d="M122.1,80.1"/>
	<line class="st0" x1="192.8" y1="244.7" x2="241.3" y2="238.1"/>
	<line class="st0" x1="88.2" y1="255.4" x2="185.9" y2="245.7"/>
	<line class="st0" x1="217.3" y1="36.8" x2="244.9" y2="92.9"/>
	<line class="st0" x1="241.3" y1="97.5" x2="123" y2="80.2"/>
	<line class="st0" x1="251" y1="102.1" x2="314.4" y2="139.7"/>
	<path class="st0" d="M150,41.7"/>
	<line class="st0" x1="144.4" y1="41.3" x2="122.1" y2="77.7"/>
	<line class="st0" x1="119.6" y1="81.1" x2="81.3" y2="105.4"/>
	<line class="st0" x1="139.8" y1="109.5" x2="241.4" y2="99.3"/>
	<line class="st0" x1="244.6" y1="103.3" x2="244.2" y2="107.7"/>
	<line class="st0" x1="183.1" y1="110.2" x2="250" y2="220.7"/>
	<line class="st0" x1="266.9" y1="161.5" x2="275" y2="169.3"/>
	<path class="st0" d="M253.2,128.4"/>
	<line class="st0" x1="168.3" y1="292.2" x2="244.2" y2="245.9"/>
	<path class="st0" d="M301,216.9"/>
	<line class="st0" x1="292.8" y1="103.8" x2="319.2" y2="136.8"/>
	<line class="st0" x1="53.3" y1="151.6" x2="39.4" y2="169.7"/>
	<line class="st0" x1="35.1" y1="175.2" x2="11.9" y2="208.2"/>
	<line class="st0" x1="51.1" y1="147.1" x2="32.9" y2="143.7"/>
	<line class="st0" x1="245.6" y1="224.2" x2="232.3" y2="207.1"/>
	<line class="st0" x1="156.8" y1="120.9" x2="139.1" y2="112.2"/>
	<line class="st0" x1="128.5" y1="133.5" x2="135.7" y2="138.3"/>
	<line class="st0" x1="138.8" y1="139.4" x2="165" y2="153.6"/>
	<line class="st0" x1="286.1" y1="95.3" x2="267.9" y2="46.6"/>
	<line class="st0" x1="298.8" y1="214.3" x2="280.5" y2="200.4"/>
	<line class="st0" x1="281.9" y1="196" x2="313.8" y2="181.6"/>
	<line class="st0" x1="276.2" y1="200.3" x2="265.4" y2="219.7"/>
	<line class="st0" x1="143.7" y1="277.7" x2="161.8" y2="246.6"/>
	<line class="st0" x1="315.4" y1="113.6" x2="252" y2="100.6"/>
	<line class="st0" x1="280" y1="170.4" x2="315.1" y2="145.8"/>
	<line class="st0" x1="82.7" y1="256.4" x2="38.6" y2="265.4"/>
	<line class="st0" x1="48.7" y1="41.3" x2="102.3" y2="50.8"/>
	<line class="st0" x1="113.5" y1="49.3" x2="141.5" y2="38.4"/>
	<line class="st0" x1="143.7" y1="31.5" x2="94.2" y2="8.1"/>
	<line class="st0" x1="85" y1="5.5" x2="46.4" y2="31.4"/>
</g>
</svg>
