<?xml version="1.0" encoding="UTF-8"?>
<svg width="18px" height="18px" viewBox="0 0 18 18" version="1.1" xmlns="http://www.w3.org/2000/svg" xmlns:xlink="http://www.w3.org/1999/xlink">
    <!-- Generator: Sketch 45.2 (43514) - http://www.bohemiancoding.com/sketch -->
    <title>Fill-1</title>
    <desc>Created with Sketch.</desc>
    <defs></defs>
    <g id="Page-1" stroke="none" stroke-width="1" fill="none" fill-rule="evenodd">
        <path d="M16.9742248,17.9999999 L0.991570119,17.9999999 C0.443780609,17.9999999 0,17.5550967 0,17.006476 L0,0.993454107 C0,0.444693638 0.44385032,0 0.991570119,0 L16.9742248,0 C17.5217355,0 17.9657252,0.444693638 17.9657252,0.993454107 L17.9657252,17.006476 C17.9657252,17.5552364 17.5217355,17.9999999 16.9742248,17.9999999 Z M12.3961044,18 L12.3961044,11.029408 L14.7313552,11.029408 L15.0810259,8.31284469 L12.3961044,8.31284469 L12.3961044,6.57849061 C12.3961044,5.79198282 12.6140909,5.25600372 13.7397154,5.25600372 L15.1755541,5.25537513 L15.1755541,2.82565905 C14.9272432,2.79255323 14.0749558,2.7186588 13.083316,2.7186588 C11.0133158,2.7186588 9.59608993,3.98464229 9.59608993,6.3094534 L9.59608993,8.31284469 L7.25484397,8.31284469 L7.25484397,11.029408 L9.59608993,11.029408 L9.59608993,18 L12.3961044,18 Z" id="Fill-1" fill="#666666" fill-rule="nonzero"></path>
    </g>
</svg>
