<?xml version="1.0" encoding="utf-8"?>
<!-- Generator: Adobe Illustrator 22.0.0, SVG Export Plug-In . SVG Version: 6.00 Build 0)  -->
<svg version="1.1" id="レイヤー_1" xmlns="http://www.w3.org/2000/svg" xmlns:xlink="http://www.w3.org/1999/xlink" x="0px"
	 y="0px" viewBox="0 0 298.7 23.7" style="enable-background:new 0 0 298.7 23.7;" xml:space="preserve">
<style type="text/css">
	.st0{fill:#FFFFFF;}
	.st1{fill:none;}
</style>
<path class="st0" d="M199.9,12c0,1.6-0.2,2.9-0.5,3.9s-0.9,1.9-1.7,2.9c-0.9,1-1.9,1.7-3.2,2.4s-2.7,1.1-4.2,1.4l-0.7-1.6
	c1.1-0.2,2.2-0.5,3.3-1s2-1.1,2.9-1.9c0.8-0.8,1.4-1.7,1.7-2.5c0.3-0.9,0.4-2,0.4-3.4h-11.2v-1.8h11.1V5.3c-2.2,0.3-5,0.4-8.6,0.6
	l-0.3-1.7c3.2-0.1,6.3-0.3,9.4-0.7c3.1-0.4,5.6-1,7.5-1.6l1.2,1.6c-1.5,0.6-3.9,1.1-7.1,1.6v5.2h9.7V12H199.9z"/>
<path class="st0" d="M219.7,21.5l-1.8,0.3l-2.2-10.6l-3.9,0.5l-0.3-1.4l3.9-0.5L214.8,6l1.7-0.3l0.8,3.7L227.8,8l0.9,0.8
	c-0.5,1.4-1.3,2.8-2.3,4.1s-2,2.3-3.1,3.2l-1-1.1c0.8-0.8,1.7-1.6,2.4-2.7c0.8-1,1.3-1.9,1.7-2.7l-8.8,1.2L219.7,21.5z"/>
<path class="st0" d="M250.1,10.3c-1.4,2.4-3.1,4.4-5.3,6.2c-2.2,1.7-4.4,3-6.8,3.9c-2.4,0.9-5.1,1.4-8.3,1.8l-0.4-1.9
	c2.7-0.3,5-0.8,7.1-1.5s3.9-1.6,5.3-2.6c1.5-1,2.7-2,3.7-3s2-2.3,3-4L250.1,10.3z M239.5,7.2l-1.4,1.6c-2.9-1.8-5.8-3.3-8.7-4.5
	l1-1.5C233.5,3.9,236.5,5.3,239.5,7.2z"/>
<path class="st0" d="M262.3,22.8h-2.1v-9.4c-2.7,1.5-6.1,2.8-10,4l-0.7-1.7c3.8-1.1,7.3-2.5,10.5-4.2c3.2-1.7,5.6-3.5,7.1-5.4h-15.3
	V4.4h8.3V1.1h2.1v3.2h7l1,0.9c-1.7,2.4-4.3,4.7-7.9,6.9L262.3,22.8L262.3,22.8z M274.2,16.1l-1.3,1.6c-1.9-1.3-4.8-2.7-8.5-4.3
	l1.1-1.4C268.8,13.2,271.7,14.6,274.2,16.1z"/>
<path class="st0" d="M281.3,8.5c0,1.9-0.1,3.5-0.3,4.7c-0.2,1.2-0.6,2.4-1.2,3.6c-0.6,1.2-1.4,2.2-2.3,3.2s-1.9,1.7-3,2.3l-0.9-1.6
	c1-0.6,2-1.5,2.8-2.5c0.9-1,1.5-2.2,2-3.6s0.7-3.5,0.7-6.4V3h2.1L281.3,8.5L281.3,8.5z M298.7,12.9c-1,2.2-2.7,4.2-4.8,5.8
	c-2.2,1.6-4.3,2.8-6.5,3.4l-0.9-0.8v-19h2.1v17.2c1.3-0.4,2.8-1.2,4.4-2.5s3-3,4.2-5.2L298.7,12.9z"/>
<g>
	<rect x="4.3" y="1" class="st1" width="126.3" height="25"/>
	<path class="st0" d="M24.9,14.2c-0.2-3-0.4-6.6-0.3-9.3h-0.1c-0.7,2.5-1.6,5.2-2.7,8.2L18,23.6h-2.1l-3.5-10.3
		c-1-3-1.9-5.8-2.5-8.4H9.8c-0.1,2.7-0.2,6.3-0.4,9.5l-0.6,9.2H6.2L7.7,2.2h3.6l3.7,10.4c0.9,2.7,1.6,5,2.2,7.3h0.1
		c0.5-2.2,1.3-4.5,2.3-7.3l3.8-10.4h3.6l1.3,21.6h-2.7L24.9,14.2z"/>
	<path class="st0" d="M35.9,3.9c0,1-0.7,1.7-1.8,1.7c-1,0-1.7-0.8-1.7-1.7c0-1,0.7-1.8,1.8-1.8C35.2,2.1,35.9,2.9,35.9,3.9z
		 M32.8,23.7V8.2h2.8v15.5H32.8z"/>
	<path class="st0" d="M51.3,23.1c-0.7,0.4-2.4,0.9-4.4,0.9c-4.7,0-7.7-3.2-7.7-7.9c0-4.8,3.3-8.2,8.3-8.2c1.7,0,3.1,0.4,3.9,0.8
		l-0.6,2.2c-0.7-0.4-1.7-0.7-3.3-0.7c-3.6,0-5.5,2.6-5.5,5.9c0,3.6,2.3,5.8,5.4,5.8c1.6,0,2.7-0.4,3.5-0.8L51.3,23.1z"/>
	<path class="st0" d="M54.6,13.1c0-1.8,0-3.4-0.1-4.8h2.5l0.1,3h0.1c0.7-2.1,2.4-3.4,4.3-3.4c0.3,0,0.5,0,0.8,0.1v2.7
		c-0.3-0.1-0.6-0.1-1-0.1c-2,0-3.4,1.5-3.8,3.6c-0.1,0.4-0.1,0.8-0.1,1.3v8.3h-2.8V13.1z"/>
	<path class="st0" d="M78.8,15.8c0,5.7-4,8.2-7.7,8.2c-4.2,0-7.4-3.1-7.4-8c0-5.2,3.4-8.2,7.7-8.2C75.8,7.9,78.8,11.1,78.8,15.8z
		 M66.5,16c0,3.4,2,6,4.7,6c2.7,0,4.7-2.5,4.7-6c0-2.6-1.3-6-4.6-6C67.9,10,66.5,13.1,66.5,16z"/>
	<path class="st0" d="M81.9,20.8c0.8,0.5,2.3,1.1,3.7,1.1c2,0,3-1,3-2.3c0-1.3-0.8-2.1-2.9-2.8c-2.8-1-4.1-2.5-4.1-4.4
		c0-2.5,2-4.5,5.3-4.5c1.6,0,2.9,0.4,3.8,1l-0.7,2C89.5,10.5,88.4,10,87,10c-1.7,0-2.6,1-2.6,2.1c0,1.3,0.9,1.9,2.9,2.6
		c2.7,1,4.1,2.4,4.1,4.7c0,2.7-2.1,4.6-5.8,4.6c-1.7,0-3.3-0.4-4.4-1.1L81.9,20.8z"/>
	<path class="st0" d="M109,15.8c0,5.7-4,8.2-7.7,8.2c-4.2,0-7.4-3.1-7.4-8c0-5.2,3.4-8.2,7.7-8.2C106,7.9,109,11.1,109,15.8z
		 M96.7,16c0,3.4,2,6,4.7,6c2.7,0,4.7-2.5,4.7-6c0-2.6-1.3-6-4.6-6C98.2,10,96.7,13.1,96.7,16z"/>
	<path class="st0" d="M112.8,23.7V10.4h-2.2V8.2h2.2V7.5c0-2.2,0.5-4.2,1.8-5.4c1.1-1,2.5-1.4,3.8-1.4c1,0,1.9,0.2,2.4,0.4l-0.4,2.2
		c-0.4-0.2-1-0.4-1.8-0.4c-2.4,0-3,2.1-3,4.5v0.8h3.7v2.1h-3.7v13.3H112.8z"/>
	<path class="st0" d="M125.6,3.8v4.4h4v2.1h-4v8.4c0,1.9,0.5,3,2.1,3c0.7,0,1.3-0.1,1.6-0.2l0.1,2.1c-0.5,0.2-1.4,0.4-2.5,0.4
		c-1.3,0-2.4-0.4-3-1.2c-0.8-0.8-1.1-2.2-1.1-4v-8.4h-2.4V8.2h2.4V4.5L125.6,3.8z"/>
</g>
<g>
	<rect x="134.7" y="1" class="st1" width="49.7" height="23.7"/>
	<path class="st0" d="M136.8,20.5c0.8,0.5,2.7,1.3,4.6,1.3c3.6,0,4.7-2.3,4.7-4c0-2.9-2.7-4.2-5.4-4.2h-1.6v-2.1h1.6
		c2,0,4.6-1.1,4.6-3.5c0-1.7-1.1-3.1-3.6-3.1c-1.7,0-3.3,0.7-4.2,1.4l-0.7-2c1.1-0.8,3.2-1.6,5.4-1.6c4.1,0,6,2.4,6,5
		c0,2.1-1.3,4-3.8,4.9v0.1c2.6,0.5,4.6,2.4,4.6,5.3c0,3.3-2.6,6.2-7.6,6.2c-2.3,0-4.4-0.7-5.4-1.4L136.8,20.5z"/>
	<path class="st0" d="M164.4,4.9c-0.6,0-1.3,0-2.1,0.1c-4.4,0.7-6.8,4-7.2,7.4h0.1c1-1.3,2.7-2.4,5-2.4c3.7,0,6.3,2.7,6.3,6.7
		c0,3.8-2.6,7.3-6.9,7.3c-4.4,0-7.4-3.5-7.4-8.9c0-4.1,1.5-7.3,3.5-9.4c1.7-1.7,4-2.8,6.7-3.1c0.8-0.1,1.5-0.2,2-0.2V4.9z
		 M163.6,16.9c0-3-1.7-4.8-4.3-4.8c-1.7,0-3.3,1.1-4,2.6c-0.2,0.3-0.3,0.7-0.3,1.2c0.1,3.4,1.6,6,4.6,6
		C162,21.9,163.6,19.9,163.6,16.9z"/>
	<path class="st0" d="M181.4,5.3h-7.9l-0.8,5.3c0.5-0.1,0.9-0.1,1.7-0.1c1.6,0,3.2,0.4,4.5,1.1c1.6,0.9,3,2.7,3,5.3
		c0,4.1-3.2,7.1-7.7,7.1c-2.3,0-4.2-0.6-5.2-1.3l0.7-2.1c0.9,0.5,2.6,1.2,4.4,1.2c2.7,0,4.9-1.7,4.9-4.5c0-2.7-1.8-4.6-6-4.6
		c-1.2,0-2.1,0.1-2.9,0.2l1.3-10h10V5.3z"/>
</g>
</svg>
